<svg xmlns="http://www.w3.org/2000/svg" height="48" viewBox="0 -960 960 960" width="48"><path d="m338.435-36.043-80.696-137.131-159.748-34.031 18.889-155.043L15.043-480 116.88-596.995 97.99-752.36l160.025-33.466 80.213-138.131 141.951 65.106 141.951-65.106 81.09 138.131 158.789 33.466-18.889 155.365L944.957-480 843.12-362.248l18.889 155.043-158.748 34.031-81.131 137.13L480-101.042l-141.565 65Zm36.242-108.436 105.242-44.623 108.69 44.623 65.869-98.173 114.609-29.87-11.435-117.412 78.739-90.278-78.739-92.27 11.435-117.625-114.343-27.196-68.378-98.218-106.263 44.563-108.712-44.563-65.372 98.38-114.54 26.812 10.809 117.907-78.679 92.341 78.679 90.359-10.809 119.896 113.789 26.843 69.409 98.504ZM480-480Zm-43 140.739 234.609-233.174-52.305-48.304L437-439.87l-93.87-100.434L288.261-487 437-339.261Z"/></svg>